<mxfile host="app.diagrams.net" agent="Mozilla/5.0 (Windows NT 10.0; Win64; x64; rv:134.0) Gecko/20100101 Firefox/134.0" version="26.0.8">
  <diagram name="Página-1" id="sTvwApYL_ayujgOax_Qh">
    <mxGraphModel dx="1194" dy="716" grid="1" gridSize="10" guides="1" tooltips="1" connect="1" arrows="1" fold="1" page="1" pageScale="1" pageWidth="827" pageHeight="1169" math="0" shadow="0">
      <root>
        <mxCell id="0" />
        <mxCell id="1" parent="0" />
        <mxCell id="qqOQCGDC68YR4CW0btTR-1" value="&lt;div&gt;&lt;b&gt;Endereço IP: &lt;span style=&quot;color: light-dark(rgb(0, 0, 0), rgb(0, 102, 204));&quot;&gt;239.255.1.1&lt;/span&gt;&lt;/b&gt;&lt;/div&gt;&lt;div&gt;&lt;b&gt;&lt;br&gt;&lt;/b&gt;&lt;/div&gt;&lt;div&gt;&lt;b&gt;Endereço MAC : &lt;span style=&quot;color: light-dark(rgb(0, 0, 0), rgb(204, 0, 204));&quot;&gt;01:00:5E:7F:01:01&lt;br&gt;&lt;/span&gt;&lt;/b&gt;&lt;/div&gt;" style="text;html=1;whiteSpace=wrap;overflow=hidden;rounded=0;fontFamily=Helvetica;fontStyle=0;fontSize=16;" vertex="1" parent="1">
          <mxGeometry x="250" y="280" width="270" height="80" as="geometry" />
        </mxCell>
      </root>
    </mxGraphModel>
  </diagram>
</mxfile>
